<svg width="1200" height="800" viewBox="0 0 1200 800" fill="none" xmlns="http://www.w3.org/2000/svg">
<g clip-path="url(#clip0_1_64)">
<rect width="1200" height="800" fill="#070B17"/>
<path d="M599.449 -512L600.112 227.129V549.266L599.483 1287.99" stroke="#787A91" stroke-opacity="0.5" stroke-width="0.5" stroke-linecap="round" stroke-linejoin="round"/>
<path d="M150.188 1287.99L519.605 549.266V227.129L149.018 -512" stroke="#787A91" stroke-opacity="0.5" stroke-width="0.5" stroke-linecap="round" stroke-linejoin="round"/>
<path d="M1049.88 -512L680.626 227.129V549.266L1048.77 1287.99" stroke="#787A91" stroke-opacity="0.5" stroke-width="0.5" stroke-linecap="round" stroke-linejoin="round"/>
<path d="M-299.616 838.445L278.088 549.257V227.118L-299.449 -61.2397" stroke="#787A91" stroke-opacity="0.5" stroke-width="0.5" stroke-linecap="round" stroke-linejoin="round"/>
<path d="M-299.616 645.438L36.5665 549.255V227.119L-299.616 131.182" stroke="#787A91" stroke-opacity="0.5" stroke-width="0.5" stroke-linecap="round" stroke-linejoin="round"/>
<path d="M-299.616 688.341L117.072 549.267V227.131L-299.616 88.4082" stroke="#787A91" stroke-opacity="0.5" stroke-width="0.5" stroke-linecap="round" stroke-linejoin="round"/>
<path d="M-299.616 748.406L197.586 549.279V227.139L-299.616 28.5256" stroke="#787A91" stroke-opacity="0.5" stroke-width="0.5" stroke-linecap="round" stroke-linejoin="round"/>
<path d="M-299.616 988.513L358.593 549.261V227.121L-299.616 -211.005" stroke="#787A91" stroke-opacity="0.5" stroke-width="0.5" stroke-linecap="round" stroke-linejoin="round"/>
<path d="M-299.092 1288L439.107 549.272V227.135L-299.616 -510.213" stroke="#787A91" stroke-opacity="0.5" stroke-width="0.5" stroke-linecap="round" stroke-linejoin="round"/>
<path d="M1499.85 645.495L1163.67 549.271V227.131L1499.85 131.152" stroke="#787A91" stroke-opacity="0.5" stroke-width="0.5" stroke-linecap="round" stroke-linejoin="round"/>
<path d="M1499.85 88.3203L1083.17 227.112L1083.16 549.252L1499.85 688.404" stroke="#787A91" stroke-opacity="0.5" stroke-width="0.5" stroke-linecap="round" stroke-linejoin="round"/>
<path d="M1499.85 28.3792L1002.66 227.132L1002.65 549.269L1500 748.588" stroke="#787A91" stroke-opacity="0.5" stroke-width="0.5" stroke-linecap="round" stroke-linejoin="round"/>
<path d="M1499.99 -61.6206L922.16 227.141L922.151 549.278L1499.86 838.714" stroke="#787A91" stroke-opacity="0.5" stroke-width="0.5" stroke-linecap="round" stroke-linejoin="round"/>
<path d="M1499.99 -211.591L841.645 227.137V549.277L1499.85 989.028" stroke="#787A91" stroke-opacity="0.5" stroke-width="0.5" stroke-linecap="round" stroke-linejoin="round"/>
<path d="M1499.85 -511.531L761.132 227.135V549.272L1498.06 1288" stroke="#787A91" stroke-opacity="0.5" stroke-width="0.5" stroke-linecap="round" stroke-linejoin="round"/>
<path d="M1499.86 83.0929H-299.616" stroke="#787A91" stroke-opacity="0.5" stroke-width="0.5" stroke-linecap="round" stroke-linejoin="round"/>
<path d="M1499.86 227.145H-299.616" stroke="#787A91" stroke-opacity="0.5" stroke-width="0.5" stroke-linecap="round" stroke-linejoin="round"/>
<path d="M1499.86 23.7963H-299.616" stroke="#787A91" stroke-opacity="0.5" stroke-width="0.5" stroke-linecap="round" stroke-linejoin="round"/>
<path d="M1499.86 183.141H-299.616" stroke="#787A91" stroke-opacity="0.5" stroke-width="0.5" stroke-linecap="round" stroke-linejoin="round"/>
<path d="M1499.86 158.005H-299.616" stroke="#787A91" stroke-opacity="0.5" stroke-width="0.5" stroke-linecap="round" stroke-linejoin="round"/>
<path d="M1499.86 142.946H-299.616" stroke="#787A91" stroke-opacity="0.5" stroke-width="0.5" stroke-linecap="round" stroke-linejoin="round"/>
<path d="M1499.86 171.306H-299.616" stroke="#787A91" stroke-opacity="0.5" stroke-width="0.5" stroke-linecap="round" stroke-linejoin="round"/>
<path d="M1499.86 203.356H-299.616" stroke="#787A91" stroke-opacity="0.5" stroke-width="0.5" stroke-linecap="round" stroke-linejoin="round"/>
<path d="M1499.86 193.776H-299.616" stroke="#787A91" stroke-opacity="0.5" stroke-width="0.5" stroke-linecap="round" stroke-linejoin="round"/>
<path d="M1499.86 212.028H-299.616" stroke="#787A91" stroke-opacity="0.5" stroke-width="0.5" stroke-linecap="round" stroke-linejoin="round"/>
<path d="M1499.86 219.938H-299.616" stroke="#787A91" stroke-opacity="0.5" stroke-width="0.5" stroke-linecap="round" stroke-linejoin="round"/>
<path d="M1499.86 106.062H-299.616" stroke="#787A91" stroke-opacity="0.5" stroke-width="0.5" stroke-linecap="round" stroke-linejoin="round"/>
<path d="M1499.86 56.0814H-299.616" stroke="#787A91" stroke-opacity="0.5" stroke-width="0.5" stroke-linecap="round" stroke-linejoin="round"/>
<path d="M1499.86 125.778H-299.616" stroke="#787A91" stroke-opacity="0.5" stroke-width="0.5" stroke-linecap="round" stroke-linejoin="round"/>
<path d="M-299.616 549.264H1499.86" stroke="#787A91" stroke-opacity="0.5" stroke-width="0.5" stroke-linecap="round" stroke-linejoin="round"/>
<path d="M-299.616 468.727H1499.86" stroke="#787A91" stroke-opacity="0.5" stroke-width="0.5" stroke-linecap="round" stroke-linejoin="round"/>
<path d="M-299.616 388.219H1499.86" stroke="#787A91" stroke-opacity="0.5" stroke-width="0.5" stroke-linecap="round" stroke-linejoin="round"/>
<path d="M-299.616 307.682H1499.86" stroke="#787A91" stroke-opacity="0.5" stroke-width="0.5" stroke-linecap="round" stroke-linejoin="round"/>
<path d="M-299.616 227.145H1499.86" stroke="#787A91" stroke-opacity="0.5" stroke-width="0.5" stroke-linecap="round" stroke-linejoin="round"/>
<path d="M1499.46 549.264H-299.616" stroke="#787A91" stroke-opacity="0.5" stroke-width="0.5" stroke-linecap="round" stroke-linejoin="round"/>
<path d="M1499.86 556.5H-299.616" stroke="#787A91" stroke-opacity="0.5" stroke-width="0.5" stroke-linecap="round" stroke-linejoin="round"/>
<path d="M1499.86 564.41H-299.616" stroke="#787A91" stroke-opacity="0.5" stroke-width="0.5" stroke-linecap="round" stroke-linejoin="round"/>
<path d="M1499.86 573.14H-299.616" stroke="#787A91" stroke-opacity="0.5" stroke-width="0.5" stroke-linecap="round" stroke-linejoin="round"/>
<path d="M1499.86 582.72H-299.616" stroke="#787A91" stroke-opacity="0.5" stroke-width="0.5" stroke-linecap="round" stroke-linejoin="round"/>
<path d="M1499.86 593.384H-299.616" stroke="#787A91" stroke-opacity="0.5" stroke-width="0.5" stroke-linecap="round" stroke-linejoin="round"/>
<path d="M1499.86 605.25H-299.616" stroke="#787A91" stroke-opacity="0.5" stroke-width="0.5" stroke-linecap="round" stroke-linejoin="round"/>
<path d="M1499.86 618.609H-299.616" stroke="#787A91" stroke-opacity="0.5" stroke-width="0.5" stroke-linecap="round" stroke-linejoin="round"/>
<path d="M1499.86 633.697H-299.616" stroke="#787A91" stroke-opacity="0.5" stroke-width="0.5" stroke-linecap="round" stroke-linejoin="round"/>
<path d="M1499.86 650.894H-299.616" stroke="#787A91" stroke-opacity="0.5" stroke-width="0.5" stroke-linecap="round" stroke-linejoin="round"/>
<path d="M1499.86 670.669H-299.616" stroke="#787A91" stroke-opacity="0.5" stroke-width="0.5" stroke-linecap="round" stroke-linejoin="round"/>
<path d="M1499.86 693.697H-299.616" stroke="#787A91" stroke-opacity="0.5" stroke-width="0.5" stroke-linecap="round" stroke-linejoin="round"/>
<path d="M1499.86 720.796H-299.616" stroke="#787A91" stroke-opacity="0.5" stroke-width="0.5" stroke-linecap="round" stroke-linejoin="round"/>
<path d="M1499.86 753.14H-299.616" stroke="#787A91" stroke-opacity="0.5" stroke-width="0.5" stroke-linecap="round" stroke-linejoin="round"/>
<path d="M1499.85 792.485H-300" stroke="#787A91" stroke-opacity="0.5" stroke-width="0.5" stroke-linecap="round" stroke-linejoin="round"/>
<path d="M-300 388.551L439.131 387.887H761.269L1500 388.517" stroke="#787A91" stroke-opacity="0.45" stroke-width="0.5" stroke-linecap="round" stroke-linejoin="round"/>
<path d="M1500 837.812L761.269 468.395H439.131L-300 838.982" stroke="#787A91" stroke-opacity="0.45" stroke-width="0.5" stroke-linecap="round" stroke-linejoin="round"/>
<path d="M-300 -61.8782L439.131 307.375H761.269L1500 -60.7719" stroke="#787A91" stroke-opacity="0.45" stroke-width="0.5" stroke-linecap="round" stroke-linejoin="round"/>
<path d="M1050.46 1287.62L761.271 709.912H439.131L150.772 1287.45" stroke="#787A91" stroke-opacity="0.45" stroke-width="0.5" stroke-linecap="round" stroke-linejoin="round"/>
<path d="M960.399 1287.62L761.272 790.414H439.131L240.517 1287.62" stroke="#787A91" stroke-opacity="0.45" stroke-width="0.5" stroke-linecap="round" stroke-linejoin="round"/>
<path d="M1200.52 1287.62L761.269 629.406H439.129L1.00146 1287.62" stroke="#787A91" stroke-opacity="0.45" stroke-width="0.5" stroke-linecap="round" stroke-linejoin="round"/>
<path d="M1500 1287.09L761.27 548.893L439.132 548.893L-298.218 1287.62" stroke="#787A91" stroke-opacity="0.45" stroke-width="0.5" stroke-linecap="round" stroke-linejoin="round"/>
<path d="M150.367 -511.994L439.13 65.8403L761.267 65.8486L1050.7 -511.855" stroke="#787A91" stroke-opacity="0.45" stroke-width="0.5" stroke-linecap="round" stroke-linejoin="round"/>
<path d="M0.400391 -511.993L439.13 146.355L761.27 146.355L1201.02 -511.854" stroke="#787A91" stroke-opacity="0.45" stroke-width="0.5" stroke-linecap="round" stroke-linejoin="round"/>
<path d="M-299.537 -511.854L439.132 226.869H761.27L1500 -510.062" stroke="#787A91" stroke-opacity="0.45" stroke-width="0.5" stroke-linecap="round" stroke-linejoin="round"/>
<path d="M3.96056 -511.857L3.96056 1287.62" stroke="#787A91" stroke-opacity="0.45" stroke-width="0.5" stroke-linecap="round" stroke-linejoin="round"/>
<path d="M295.099 -511.857L295.099 1287.62" stroke="#787A91" stroke-opacity="0.45" stroke-width="0.5" stroke-linecap="round" stroke-linejoin="round"/>
<path d="M196.568 -511.857L196.568 1287.62" stroke="#787A91" stroke-opacity="0.45" stroke-width="0.5" stroke-linecap="round" stroke-linejoin="round"/>
<path d="M85.7916 -511.857L85.7916 1287.62" stroke="#787A91" stroke-opacity="0.45" stroke-width="0.5" stroke-linecap="round" stroke-linejoin="round"/>
<path d="M439.15 -511.857L439.15 1287.62" stroke="#787A91" stroke-opacity="0.45" stroke-width="0.5" stroke-linecap="round" stroke-linejoin="round"/>
<path d="M147.875 -511.857L147.875 1287.62" stroke="#787A91" stroke-opacity="0.45" stroke-width="0.5" stroke-linecap="round" stroke-linejoin="round"/>
<path d="M235.803 -511.857L235.803 1287.62" stroke="#787A91" stroke-opacity="0.45" stroke-width="0.5" stroke-linecap="round" stroke-linejoin="round"/>
<path d="M395.156 -511.857L395.156 1287.62" stroke="#787A91" stroke-opacity="0.45" stroke-width="0.5" stroke-linecap="round" stroke-linejoin="round"/>
<path d="M369.997 -511.857L369.997 1287.62" stroke="#787A91" stroke-opacity="0.45" stroke-width="0.5" stroke-linecap="round" stroke-linejoin="round"/>
<path d="M354.956 -511.857L354.956 1287.62" stroke="#787A91" stroke-opacity="0.45" stroke-width="0.5" stroke-linecap="round" stroke-linejoin="round"/>
<path d="M383.308 -511.857L383.308 1287.62" stroke="#787A91" stroke-opacity="0.45" stroke-width="0.5" stroke-linecap="round" stroke-linejoin="round"/>
<path d="M415.358 -511.857L415.358 1287.62" stroke="#787A91" stroke-opacity="0.45" stroke-width="0.5" stroke-linecap="round" stroke-linejoin="round"/>
<path d="M405.782 -511.857L405.782 1287.62" stroke="#787A91" stroke-opacity="0.45" stroke-width="0.5" stroke-linecap="round" stroke-linejoin="round"/>
<path d="M424.029 -511.857L424.029 1287.62" stroke="#787A91" stroke-opacity="0.45" stroke-width="0.5" stroke-linecap="round" stroke-linejoin="round"/>
<path d="M431.93 -511.857L431.93 1287.62" stroke="#787A91" stroke-opacity="0.45" stroke-width="0.5" stroke-linecap="round" stroke-linejoin="round"/>
<path d="M318.05 -511.857L318.05 1287.62" stroke="#787A91" stroke-opacity="0.45" stroke-width="0.5" stroke-linecap="round" stroke-linejoin="round"/>
<path d="M268.079 -511.857L268.079 1287.62" stroke="#787A91" stroke-opacity="0.45" stroke-width="0.5" stroke-linecap="round" stroke-linejoin="round"/>
<path d="M337.79 -511.857L337.79 1287.62" stroke="#787A91" stroke-opacity="0.45" stroke-width="0.5" stroke-linecap="round" stroke-linejoin="round"/>
<path d="M761.273 1287.62L761.273 -511.857" stroke="#787A91" stroke-opacity="0.45" stroke-width="0.5" stroke-linecap="round" stroke-linejoin="round"/>
<path d="M680.739 1287.62L680.739 -511.857" stroke="#787A91" stroke-opacity="0.45" stroke-width="0.5" stroke-linecap="round" stroke-linejoin="round"/>
<path d="M600.213 1287.62L600.213 -511.857" stroke="#787A91" stroke-opacity="0.45" stroke-width="0.5" stroke-linecap="round" stroke-linejoin="round"/>
<path d="M519.676 1287.62L519.676 -511.857" stroke="#787A91" stroke-opacity="0.45" stroke-width="0.5" stroke-linecap="round" stroke-linejoin="round"/>
<path d="M439.15 1287.62L439.15 -511.857" stroke="#787A91" stroke-opacity="0.45" stroke-width="0.5" stroke-linecap="round" stroke-linejoin="round"/>
<path d="M761.273 -511.464L761.273 1287.62" stroke="#787A91" stroke-opacity="0.45" stroke-width="0.5" stroke-linecap="round" stroke-linejoin="round"/>
<path d="M768.509 -511.857L768.509 1287.62" stroke="#787A91" stroke-opacity="0.45" stroke-width="0.5" stroke-linecap="round" stroke-linejoin="round"/>
<path d="M776.427 -511.857L776.427 1287.62" stroke="#787A91" stroke-opacity="0.45" stroke-width="0.5" stroke-linecap="round" stroke-linejoin="round"/>
<path d="M785.13 -511.857L785.13 1287.62" stroke="#787A91" stroke-opacity="0.45" stroke-width="0.5" stroke-linecap="round" stroke-linejoin="round"/>
<path d="M794.722 -511.857L794.722 1287.62" stroke="#787A91" stroke-opacity="0.45" stroke-width="0.5" stroke-linecap="round" stroke-linejoin="round"/>
<path d="M805.375 -511.857L805.375 1287.62" stroke="#787A91" stroke-opacity="0.45" stroke-width="0.5" stroke-linecap="round" stroke-linejoin="round"/>
<path d="M817.258 -511.857L817.258 1287.62" stroke="#787A91" stroke-opacity="0.45" stroke-width="0.5" stroke-linecap="round" stroke-linejoin="round"/>
<path d="M830.607 -511.857L830.607 1287.62" stroke="#787A91" stroke-opacity="0.45" stroke-width="0.5" stroke-linecap="round" stroke-linejoin="round"/>
<path d="M845.692 -511.857L845.692 1287.62" stroke="#787A91" stroke-opacity="0.45" stroke-width="0.5" stroke-linecap="round" stroke-linejoin="round"/>
<path d="M862.893 -511.857L862.893 1287.62" stroke="#787A91" stroke-opacity="0.45" stroke-width="0.5" stroke-linecap="round" stroke-linejoin="round"/>
<path d="M882.685 -511.857L882.685 1287.62" stroke="#787A91" stroke-opacity="0.45" stroke-width="0.5" stroke-linecap="round" stroke-linejoin="round"/>
<path d="M905.701 -511.857L905.701 1287.62" stroke="#787A91" stroke-opacity="0.45" stroke-width="0.5" stroke-linecap="round" stroke-linejoin="round"/>
<path d="M932.793 -511.857L932.793 1287.62" stroke="#787A91" stroke-opacity="0.45" stroke-width="0.5" stroke-linecap="round" stroke-linejoin="round"/>
<path d="M965.157 -511.857L965.157 1287.62" stroke="#787A91" stroke-opacity="0.45" stroke-width="0.5" stroke-linecap="round" stroke-linejoin="round"/>
<path d="M1004.49 -511.854L1004.49 1288" stroke="#787A91" stroke-opacity="0.45" stroke-width="0.5" stroke-linecap="round" stroke-linejoin="round"/>
<path d="M1053.32 -511.857V1287.62" stroke="#787A91" stroke-opacity="0.45" stroke-width="0.5" stroke-linecap="round" stroke-linejoin="round"/>
<path d="M1115.57 -511.857V1287.62" stroke="#787A91" stroke-opacity="0.45" stroke-width="0.5" stroke-linecap="round" stroke-linejoin="round"/>
<path d="M1197.64 -511.857V1287.62" stroke="#787A91" stroke-opacity="0.45" stroke-width="0.5" stroke-linecap="round" stroke-linejoin="round"/>
<rect y="228" width="1200" height="320" fill="#070B17"/>
<rect x="440" y="988" width="1200" height="320" transform="rotate(-90 440 988)" fill="#070B17"/>
<path d="M263.558 358.513C263.152 358.347 262.691 358.26 262.223 358.26V426.942C262.691 426.942 263.152 426.855 263.558 426.689L303.274 410.467C303.68 410.301 304.017 410.063 304.251 409.775C304.486 409.488 304.609 409.162 304.609 408.83V376.378C304.609 376.046 304.486 375.72 304.251 375.432C304.017 375.145 303.68 374.906 303.274 374.74L263.558 358.513Z" fill="white"/>
<path d="M254.051 347.253C254.457 347.087 254.917 347 255.386 347V415.682C254.917 415.682 254.457 415.595 254.051 415.429L214.335 399.208C213.929 399.042 213.591 398.803 213.357 398.516C213.123 398.228 213 397.902 213 397.571V365.118C213 364.786 213.123 364.46 213.357 364.173C213.591 363.885 213.929 363.647 214.335 363.481L254.051 347.253Z" fill="white"/>
<path d="M329.809 373.614H340.129C344.769 373.614 349.489 375.534 349.489 380.974C349.489 383.534 348.409 385.734 346.129 386.974C349.129 388.134 350.689 390.734 350.689 393.934C350.689 399.694 345.489 402.014 340.329 402.014H329.809V373.614ZM335.569 397.094H340.049C342.529 397.094 344.729 396.174 344.729 393.374C344.729 390.574 342.529 389.654 340.049 389.654H335.569V397.094ZM335.569 385.054H339.489C341.649 385.054 343.569 384.254 343.569 381.814C343.569 379.334 341.689 378.534 339.489 378.534H335.569V385.054ZM354.254 402.014V372.174H359.854V402.014H354.254ZM363.532 391.454C363.532 385.174 368.252 380.294 374.652 380.294C380.932 380.294 385.612 385.014 385.612 391.414C385.612 397.734 380.972 402.614 374.492 402.614C368.212 402.614 363.532 397.814 363.532 391.454ZM374.572 385.334C371.252 385.334 369.252 388.294 369.252 391.454C369.252 394.534 371.212 397.574 374.572 397.574C377.892 397.574 379.892 394.614 379.892 391.454C379.892 388.334 377.972 385.334 374.572 385.334ZM388.688 391.614C388.688 385.534 393.048 380.294 399.448 380.294C403.848 380.294 407.648 382.814 408.768 387.214L403.448 388.254C402.688 386.494 401.288 385.334 399.328 385.334C396.008 385.334 394.408 388.574 394.408 391.534C394.408 394.454 396.008 397.574 399.328 397.574C401.288 397.574 402.928 396.494 403.648 394.654L408.968 395.694C407.808 400.134 403.768 402.614 399.288 402.614C393.128 402.614 388.688 397.814 388.688 391.614ZM412.34 372.174H417.82V389.494L425.66 380.894H432.22L423.42 390.254L433.18 402.014H426.1L417.82 391.494V402.014H412.34V372.174ZM434.062 380.894H437.662V379.694C437.662 375.134 440.862 371.774 445.582 371.774C447.022 371.774 448.502 372.134 449.782 372.814L448.662 377.094C447.902 376.734 447.222 376.494 446.382 376.494C444.102 376.494 443.262 377.934 443.262 380.054V380.894H448.862V385.414H443.262V402.014H437.662V385.414H434.062V380.894ZM451.988 402.014V372.174H457.588V402.014H451.988ZM461.266 391.454C461.266 385.174 465.986 380.294 472.386 380.294C478.666 380.294 483.346 385.014 483.346 391.414C483.346 397.734 478.706 402.614 472.226 402.614C465.946 402.614 461.266 397.814 461.266 391.454ZM472.306 385.334C468.986 385.334 466.986 388.294 466.986 391.454C466.986 394.534 468.946 397.574 472.306 397.574C475.626 397.574 477.626 394.614 477.626 391.454C477.626 388.334 475.706 385.334 472.306 385.334ZM491.602 402.014L484.602 380.894H490.362L494.322 395.174L498.602 380.894H503.442L507.722 395.214L511.762 380.894H517.322L510.322 402.014H505.162L500.922 387.734L496.682 402.014H491.602Z" fill="white"/>
<path d="M574 365L625.465 410.004" stroke="white" stroke-width="2.5" stroke-miterlimit="10"/>
<path d="M625.465 365L574 410.004" stroke="white" stroke-width="2.5" stroke-miterlimit="10"/>
</g>
<defs>
<clipPath id="clip0_1_64">
<rect width="1200" height="800" fill="white"/>
</clipPath>
</defs>
</svg>
